      <svg id="logo" width="652" height="104" viewBox="0 0 652 104" fill="none" xmlns="http://www.w3.org/2000/svg">
        <path d="M31.336 1.632C42.28 1.632 51.736 3.696 59.704 7.824C67.768 11.856 73.912 17.664 78.136 25.248C82.456 32.832 84.616 41.76 84.616 52.032C84.616 62.304 82.456 71.232 78.136 78.816C73.912 86.304 67.768 92.064 59.704 96.096C51.736 100.032 42.28 102 31.336 102H0.0880127V1.632H31.336ZM31.336 91.2C44.296 91.2 54.184 87.792 61 80.976C67.816 74.064 71.224 64.416 71.224 52.032C71.224 39.552 67.768 29.808 60.856 22.8C54.04 15.792 44.2 12.288 31.336 12.288H13.192V91.2H31.336Z" stroke="white" stroke-width="5"/>
        <path d="M115.005 12.288V45.84H151.581V56.64H115.005V91.2H155.901V102H101.901V1.488H155.901V12.288H115.005Z" stroke="white" stroke-width="5"/>
        <path d="M207.553 103.008C200.929 103.008 194.977 101.856 189.697 99.552C184.513 97.152 180.433 93.888 177.457 89.76C174.481 85.536 172.945 80.688 172.849 75.216H186.817C187.297 79.92 189.217 83.904 192.577 87.168C196.033 90.336 201.025 91.92 207.553 91.92C213.793 91.92 218.689 90.384 222.241 87.312C225.889 84.144 227.713 80.112 227.713 75.216C227.713 71.376 226.657 68.256 224.545 65.856C222.433 63.456 219.793 61.632 216.625 60.384C213.457 59.136 209.185 57.792 203.809 56.352C197.185 54.624 191.857 52.896 187.825 51.168C183.889 49.44 180.481 46.752 177.601 43.104C174.817 39.36 173.425 34.368 173.425 28.128C173.425 22.656 174.817 17.808 177.601 13.584C180.385 9.36 184.273 6.09599 189.265 3.792C194.353 1.488 200.161 0.335999 206.689 0.335999C216.097 0.335999 223.777 2.688 229.729 7.392C235.777 12.096 239.185 18.336 239.953 26.112H225.553C225.073 22.272 223.057 18.912 219.505 16.032C215.953 13.056 211.249 11.568 205.393 11.568C199.921 11.568 195.457 13.008 192.001 15.888C188.545 18.672 186.817 22.608 186.817 27.696C186.817 31.344 187.825 34.32 189.841 36.624C191.953 38.928 194.497 40.704 197.473 41.952C200.545 43.104 204.817 44.448 210.289 45.984C216.913 47.808 222.241 49.632 226.273 51.456C230.305 53.184 233.761 55.92 236.641 59.664C239.521 63.312 240.961 68.304 240.961 74.64C240.961 79.536 239.665 84.144 237.073 88.464C234.481 92.784 230.641 96.288 225.553 98.976C220.465 101.664 214.465 103.008 207.553 103.008Z" stroke="white" stroke-width="5"/>
        <path d="M273.348 1.632V102H260.244V1.632H273.348Z" stroke="white" stroke-width="5"/>
        <path d="M371.714 30.72C368.93 24.864 364.898 20.352 359.618 17.184C354.338 13.92 348.194 12.288 341.186 12.288C334.178 12.288 327.842 13.92 322.178 17.184C316.61 20.352 312.194 24.96 308.93 31.008C305.762 36.96 304.178 43.872 304.178 51.744C304.178 59.616 305.762 66.528 308.93 72.48C312.194 78.432 316.61 83.04 322.178 86.304C327.842 89.472 334.178 91.056 341.186 91.056C350.978 91.056 359.042 88.128 365.378 82.272C371.714 76.416 375.41 68.496 376.466 58.512H336.434V47.856H390.434V57.936C389.666 66.192 387.074 73.776 382.658 80.688C378.242 87.504 372.434 92.928 365.234 96.96C358.034 100.896 350.018 102.864 341.186 102.864C331.874 102.864 323.378 100.704 315.698 96.384C308.018 91.968 301.922 85.872 297.41 78.096C292.994 70.32 290.786 61.536 290.786 51.744C290.786 41.952 292.994 33.168 297.41 25.392C301.922 17.52 308.018 11.424 315.698 7.104C323.378 2.688 331.874 0.48 341.186 0.48C351.842 0.48 361.25 3.12 369.41 8.4C377.666 13.68 383.666 21.12 387.41 30.72H371.714Z" stroke="white" stroke-width="5"/>
        <path d="M486.672 102H473.568L420.864 22.08V102H407.76V1.488H420.864L473.568 81.264V1.488H486.672V102Z" stroke="white" stroke-width="5"/>
        <path d="M522.114 12.288V45.84H558.69V56.64H522.114V91.2H563.01V102H509.01V1.488H563.01V12.288H522.114Z" stroke="white" stroke-width="5"/>
        <path d="M635.686 102L611.782 60.96H595.942V102H582.838V1.632H615.238C622.822 1.632 629.206 2.928 634.39 5.52C639.67 8.112 643.606 11.616 646.198 16.032C648.79 20.448 650.086 25.488 650.086 31.152C650.086 38.064 648.07 44.16 644.038 49.44C640.102 54.72 634.15 58.224 626.182 59.952L651.382 102H635.686ZM595.942 50.448H615.238C622.342 50.448 627.67 48.72 631.222 45.264C634.774 41.712 636.55 37.008 636.55 31.152C636.55 25.2 634.774 20.592 631.222 17.328C627.766 14.064 622.438 12.432 615.238 12.432H595.942V50.448Z" stroke="white" stroke-width="5"/>
      </svg>
